# xmcd CD database file
#
# Track frame offsets:
#	150
#	16433
#	31948
#	51889
#	70047
#	87963
#	106385
#	127479
#	147042
#	162445
#	180538
#	199956
#	217916
#	235786
#	258519
#	276095
#	294513
#
# Disc length: 4184 seconds
#
# Revision: 0
# Processed by: cddbd v1.5.2PL0 Copyright (c) Steve Scherf et al.
# Submitted via: CDex 1.51
#
DISCID=fb105611
DTITLE=Various Artist - Non Stop Hits
DYEAR=1998
DGENRE=90's
TTITLE0=Garbage - I Think I'm Paranoid
TTITLE1=In Mood - Ocean of Light (feat. Juliette)
TTITLE2=Graaf - You Got (What I Want)
TTITLE3=Total Touch - I'll Say Goodbye
TTITLE4=Anouk - Sacrifice
TTITLE5=Midge Ure - Breathe
TTITLE6=Baby Bird - If You'll Be Mine
TTITLE7=Mavericks - Dance the Night Away
TTITLE8=Blue 4 U - Happy World
TTITLE9=Cleopatra - I Want You Back
TTITLE10=No Mercy - Hello How Are You
TTITLE11=Deep Dish - The Future of the Future (Stay Gold) (with Everything But the Girl)
TTITLE12=Ultra - Say it Once
TTITLE13=Bille Myers - Tell Me
TTITLE14=4 the Cause - Ain't No Sunshine
TTITLE15=Nek - Laura
TTITLE16=Dario G - Sunmachine
EXTD=YEAR: 1998
EXTT0=
EXTT1=
EXTT2=
EXTT3=
EXTT4=
EXTT5=
EXTT6=
EXTT7=
EXTT8=
EXTT9=
EXTT10=
EXTT11=
EXTT12=
EXTT13=
EXTT14=
EXTT15=
EXTT16=
PLAYORDER=
